<?xml version="1.0" encoding="UTF-8" standalone="no"?>
<svg
   xmlns:dc="http://purl.org/dc/elements/1.1/"
   xmlns:cc="http://creativecommons.org/ns#"
   xmlns:rdf="http://www.w3.org/1999/02/22-rdf-syntax-ns#"
   xmlns:svg="http://www.w3.org/2000/svg"
   xmlns="http://www.w3.org/2000/svg"
   xmlns:sodipodi="http://sodipodi.sourceforge.net/DTD/sodipodi-0.dtd"
   xmlns:inkscape="http://www.inkscape.org/namespaces/inkscape"
   viewBox="0 0 700 700.00001"
   version="1.1"
   id="svg46"
   sodipodi:docname="southern-company-logo.svg"
   width="700"
   height="700"
   inkscape:version="0.92.4 (5da689c313, 2019-01-14)"
   inkscape:export-filename="C:\Users\suitedoalex\sites\southern-company-logo-0.png"
   inkscape:export-xdpi="561.73712"
   inkscape:export-ydpi="561.73712">
  <metadata
     id="metadata50">
    <rdf:RDF>
      <cc:Work
         rdf:about="">
        <dc:format>image/svg+xml</dc:format>
        <dc:type
           rdf:resource="http://purl.org/dc/dcmitype/StillImage" />
        <dc:title></dc:title>
      </cc:Work>
    </rdf:RDF>
  </metadata>
  <sodipodi:namedview
     pagecolor="#ffffff"
     bordercolor="#666666"
     borderopacity="1"
     objecttolerance="10"
     gridtolerance="10"
     guidetolerance="10"
     inkscape:pageopacity="0"
     inkscape:pageshadow="2"
     inkscape:window-width="1600"
     inkscape:window-height="837"
     id="namedview48"
     showgrid="false"
     inkscape:zoom="0.4260975"
     inkscape:cx="171.87128"
     inkscape:cy="270.94661"
     inkscape:window-x="-8"
     inkscape:window-y="-8"
     inkscape:window-maximized="1"
     inkscape:current-layer="svg46" />
  <defs
     id="defs4">
    <style
       id="style2">
      .cls-1 {
        fill: #636466;
      }

      .cls-2 {
        fill: #007dba;
      }

      .cls-3 {
        fill: #b2d235;
      }

      .cls-4 {
        fill: #00bdf2;
      }

      .cls-5 {
        fill: #ed1d24;
      }
    </style>
  </defs>
  <g
     id="Layer_2"
     data-name="Layer 2"
     transform="matrix(2.6027064,0,0,2.6027064,7.7441084,792.14063)"
     inkscape:export-filename="C:\Users\suitedoalex\sites\southern-company-logo-2.png"
     inkscape:export-xdpi="201.95415"
     inkscape:export-ydpi="201.95415">
    <g
       id="Layer_1-2"
       data-name="Layer 1">
      <path
         class="cls-1"
         d="m 44.16,30.76 0.47,-2.91 a 10.09,10.09 0 0 0 5.72,1.63 c 2.54,0 4.17,-1.08 4.17,-2.83 0,-1.31 -0.82,-2.16 -2.92,-3.21 -0.46,-0.23 -2.51,-1.11 -3.21,-1.43 -2.42,-1.11 -4,-2.74 -4,-5.4 0,-3 2.51,-5.16 6.74,-5.16 a 10.55,10.55 0 0 1 5.22,1.25 l -0.5,2.8 A 9.52,9.52 0 0 0 51,14.1 c -2.39,0 -3.62,1.11 -3.62,2.57 0,1.23 0.85,2 2.39,2.68 0.56,0.27 3.07,1.32 3.54,1.52 2.91,1.34 4.23,3.07 4.23,5.55 0,3.41 -2.83,5.74 -7.07,5.74 a 12.08,12.08 0 0 1 -6.3,-1.4"
         id="path6"
         inkscape:connector-curvature="0"
         style="fill:#636466" />
      <path
         class="cls-1"
         d="m 65.51,32.16 c -3.62,0 -6.5,-2.33 -6.5,-7.29 0,-4.96 2.94,-7.29 6.5,-7.29 3.74,0 6.48,2.56 6.48,7.29 0,4.73 -2.92,7.29 -6.48,7.29 m 0,-2.42 c 2.19,0 3.62,-2.07 3.62,-4.87 0,-2.8 -1.4,-4.87 -3.62,-4.87 -2.45,0 -3.62,2.33 -3.62,4.87 0,2.71 1.32,4.87 3.62,4.87"
         id="path8"
         inkscape:connector-curvature="0"
         style="fill:#636466" />
      <path
         class="cls-1"
         d="M 73.87,27.9 V 17.84 h 2.86 v 9.1 c 0,1.64 0.52,2.69 2.24,2.69 1.46,0 3,-1.38 3.54,-2.1 v -9.69 h 2.85 v 14 H 82.91 L 82.68,30.06 A 7.35,7.35 0 0 1 78,32.16 c -2.8,0 -4.17,-1.72 -4.17,-4.26"
         id="path10"
         inkscape:connector-curvature="0"
         style="fill:#636466" />
      <path
         class="cls-1"
         d="m 95.84,31.9 a 9.74,9.74 0 0 1 -2.18,0.26 c -2.69,0 -4.09,-1.34 -4.09,-4.14 v -7.76 h -2 v -2.42 h 2 V 14 l 2.83,-0.81 v 4.61 h 2.95 l 0.41,2.42 H 92.4 v 7.47 a 1.55,1.55 0 0 0 1.78,1.75 4.87,4.87 0 0 0 1.29,-0.15 z"
         id="path12"
         inkscape:connector-curvature="0"
         style="fill:#636466" />
      <path
         class="cls-1"
         d="m 109.63,21.81 v 10.06 h -2.83 v -9.1 c 0,-1.61 -0.55,-2.69 -2.27,-2.69 -1.46,0 -2.92,1.4 -3.53,2.13 v 9.66 H 98.17 V 11.59 L 101,10.78 v 8.72 a 7.09,7.09 0 0 1 4.46,-1.92 c 2.8,0 4.17,1.69 4.17,4.23"
         id="path14"
         inkscape:connector-curvature="0"
         style="fill:#636466" />
      <path
         class="cls-1"
         d="m 114.52,25.28 c 0,1.49 0.58,4.43 3.94,4.43 a 7.86,7.86 0 0 0 5,-2 l 0.41,2.51 a 8.39,8.39 0 0 1 -5.69,1.92 c -3.86,0 -6.48,-2.59 -6.48,-7.32 0,-4.9 3,-7.29 6.21,-7.29 4.18,0 6,3.41 6,7 v 0.7 z m 6.42,-2.22 c -0.18,-0.93 -0.56,-3.21 -3.1,-3.21 -2,0 -2.94,1.81 -3.18,3.21 z"
         id="path16"
         inkscape:connector-curvature="0"
         style="fill:#636466" />
      <path
         class="cls-1"
         d="m 128.94,20.35 a 6,6 0 0 1 4.85,-2.78 l 0.4,2.57 a 5.56,5.56 0 0 0 -5.1,3.07 v 8.66 h -2.86 v -14 h 2.36 z"
         id="path18"
         inkscape:connector-curvature="0"
         style="fill:#636466" />
      <path
         class="cls-1"
         d="m 147.15,21.81 v 10.06 h -2.86 v -9.1 c 0,-1.61 -0.52,-2.69 -2.24,-2.69 -1.46,0 -3,1.4 -3.53,2.13 v 9.66 h -2.86 v -14 h 2.45 l 0.23,1.81 a 7.28,7.28 0 0 1 4.66,-2.1 c 2.8,0 4.17,1.69 4.17,4.23"
         id="path20"
         inkscape:connector-curvature="0"
         style="fill:#636466" />
      <path
         class="cls-1"
         d="m 170.74,13.08 -0.44,3 a 8.63,8.63 0 0 0 -5.39,-2 c -4.2,0 -6.28,3.39 -6.28,7.71 0,4.58 2.25,7.67 6.28,7.67 a 9.66,9.66 0 0 0 5.69,-2.13 l 0.41,3 c -0.27,0.32 -2.25,1.83 -6.13,1.83 -5.46,0 -9.34,-3.93 -9.34,-10.35 0,-6.42 3.88,-10.36 9.34,-10.36 a 9.61,9.61 0 0 1 5.86,1.63"
         id="path22"
         inkscape:connector-curvature="0"
         style="fill:#636466" />
      <path
         class="cls-1"
         d="m 178.49,32.16 c -3.62,0 -6.51,-2.33 -6.51,-7.29 0,-4.96 3,-7.29 6.51,-7.29 3.73,0 6.48,2.56 6.48,7.29 0,4.73 -2.92,7.29 -6.48,7.29 m 0,-2.42 c 2.19,0 3.62,-2.07 3.62,-4.87 0,-2.8 -1.4,-4.87 -3.62,-4.87 -2.45,0 -3.62,2.33 -3.62,4.87 0,2.71 1.31,4.87 3.62,4.87"
         id="path24"
         inkscape:connector-curvature="0"
         style="fill:#636466" />
      <path
         class="cls-1"
         d="m 206.55,21.81 v 10.06 h -2.83 v -9.1 c 0,-1.61 -0.47,-2.69 -2.19,-2.69 -1.46,0 -2.86,1.38 -3.45,2.13 v 9.66 h -2.86 v -9.1 c 0,-1.61 -0.46,-2.69 -2.18,-2.69 -1.46,0 -2.86,1.4 -3.45,2.13 v 9.66 h -2.86 v -14 h 2.45 l 0.24,1.81 a 7.18,7.18 0 0 1 4.58,-2.1 3.58,3.58 0 0 1 3.7,2.18 7.15,7.15 0 0 1 4.79,-2.18 c 2.8,0 4,1.69 4,4.23"
         id="path26"
         inkscape:connector-curvature="0"
         style="fill:#636466" />
      <path
         class="cls-1"
         d="m 211.78,19.65 a 5.88,5.88 0 0 1 4.37,-2.07 c 3.33,0 5.55,2.33 5.55,7.29 0,5.16 -3.45,7.29 -6.77,7.29 a 8.41,8.41 0 0 1 -2.89,-0.58 v 4.9 l -2.86,0.82 V 17.84 h 2.33 z m 0.26,2.24 v 7.36 a 8.37,8.37 0 0 0 2.68,0.49 c 2.75,0 4.12,-2.1 4.12,-4.87 0,-2.95 -1.26,-4.87 -3.47,-4.87 A 5,5 0 0 0 212,21.89"
         id="path28"
         inkscape:connector-curvature="0"
         style="fill:#636466" />
      <path
         class="cls-1"
         d="m 232,31.87 -0.12,-1.72 a 5.13,5.13 0 0 1 -4.17,2 c -2.63,0 -4.73,-1.37 -4.73,-4.37 0,-4.2 5.69,-4.79 8.67,-5.11 v -0.44 c 0,-1 -0.41,-2.24 -2.74,-2.24 a 11.24,11.24 0 0 0 -4.61,1.28 l -0.38,-2.51 a 13.18,13.18 0 0 1 5.19,-1.2 c 4.17,0 5.4,1.9 5.4,5 v 9.34 z m -0.35,-6.94 c -3.21,0.32 -5.87,1 -5.87,2.94 0,1.26 0.88,1.87 2.16,1.87 a 5.6,5.6 0 0 0 3.71,-1.84 z"
         id="path30"
         inkscape:connector-curvature="0"
         style="fill:#636466" />
      <path
         class="cls-1"
         d="m 248.69,21.81 v 10.06 h -2.86 v -9.1 c 0,-1.61 -0.53,-2.69 -2.25,-2.69 -1.46,0 -2.94,1.4 -3.53,2.13 v 9.66 h -2.86 v -14 h 2.45 l 0.24,1.81 a 7.28,7.28 0 0 1 4.64,-2.07 c 2.8,0 4.17,1.69 4.17,4.23"
         id="path32"
         inkscape:connector-curvature="0"
         style="fill:#636466" />
      <path
         class="cls-1"
         d="m 253,17.84 3.59,10.44 3.53,-10.44 H 263 c 0,0 -4,10.94 -5.6,15.17 -1.4,3.82 -3.73,4 -4.93,4 a 5.42,5.42 0 0 1 -1.14,-0.12 L 251,34.41 a 5.32,5.32 0 0 0 1.55,0.26 2.17,2.17 0 0 0 2.14,-1.67 c 0.23,-0.64 0.44,-1.26 0.44,-1.26 L 250,17.84 Z"
         id="path34"
         inkscape:connector-curvature="0"
         style="fill:#636466" />
      <polygon
         class="cls-2"
         points="12.23,25.74 0,31.87 36.8,31.87 36.8,31.86 "
         id="polygon36"
         style="fill:#007dba" />
      <polygon
         class="cls-3"
         points="0,31.87 12.23,25.74 4.63,23.84 "
         id="polygon38"
         style="fill:#b2d235" />
      <polygon
         class="cls-4"
         points="36.8,31.86 28.54,17.56 12.23,25.74 "
         id="polygon40"
         style="fill:#00bdf2" />
      <polygon
         class="cls-5"
         points="5.61,22.15 27.56,15.86 18.4,0 "
         id="polygon42"
         style="fill:#ed1d24" />
    </g>
  </g>
  <g
     id="Layer_2-0"
     data-name="Layer 2"
     transform="matrix(4.9225726,0,0,4.9225726,259.79922,162.34157)"
     inkscape:export-filename="C:\Users\suitedoalex\sites\southern-company-logo-3.png"
     inkscape:export-xdpi="365.77164"
     inkscape:export-ydpi="365.77164">
    <g
       id="Layer_1-2-8"
       data-name="Layer 1">
      <path
         inkscape:connector-curvature="0"
         class="cls-1"
         d="m -18.474929,53.394969 0.335802,-2.079111 a 7.2090145,7.2090145 0 0 0 4.086774,1.164587 c 1.814758,0 2.979346,-0.771629 2.979346,-2.021953 0,-0.935957 -0.585867,-1.543258 -2.086256,-2.293453 -0.328657,-0.164328 -1.793323,-0.793062 -2.293453,-1.021694 -1.72902,-0.793062 -2.857884,-1.957651 -2.857884,-3.858144 0,-2.143414 1.793322,-3.686672 4.815535,-3.686672 a 7.5376712,7.5376712 0 0 1 3.7295405,0.89309 l -0.3572365,2.000518 a 6.801766,6.801766 0 0 0 -3.465184,-1.000259 c -1.707587,0 -2.586387,0.793064 -2.586387,1.836191 0,0.8788 0.607301,1.428942 1.707587,1.914782 0.400103,0.192908 2.193426,0.943103 2.529227,1.085997 2.0791118,0.957391 3.0222144,2.193426 3.0222144,3.965316 0,2.436346 -2.0219534,4.101064 -5.0513124,4.101064 a 8.6308121,8.6308121 0 0 1 -4.501169,-1.000259"
         id="path6-6"
         style="fill:#636466;fill-opacity:1;stroke-width:0.71447116" />
      <path
         inkscape:connector-curvature="0"
         class="cls-1"
         d="m -3.2209681,54.395228 c -2.5863857,0 -4.6440625,-1.664718 -4.6440625,-5.208495 0,-3.543777 2.1005451,-5.208495 4.6440625,-5.208495 2.67212235,0 4.6297735,1.829045 4.6297735,5.208495 0,3.379449 -2.08625599,5.208495 -4.6297735,5.208495 m 0,-1.729021 c 1.5646919,0 2.58638572,-1.478955 2.58638572,-3.479474 0,-2.00052 -1.00025972,-3.479475 -2.58638572,-3.479475 -1.7504544,0 -2.5863857,1.664719 -2.5863857,3.479475 0,1.936216 0.9431019,3.479474 2.5863857,3.479474"
         id="path8-7"
         style="fill:#636466;fill-opacity:1;stroke-width:0.71447116" />
      <path
         inkscape:connector-curvature="0"
         class="cls-1"
         d="M 2.7520111,51.351581 V 44.164 h 2.0433874 v 6.501688 c 0,1.171733 0.371525,1.921928 1.6004155,1.921928 1.0431279,0 2.1434135,-0.98597 2.5292278,-1.50039 V 44.164 H 10.961285 V 54.166597 H 9.2108303 L 9.0465017,52.894838 a 5.2513634,5.2513634 0 0 1 -3.3437248,1.50039 c -2.000519,0 -2.9793447,-1.228891 -2.9793447,-3.043647"
         id="path10-9"
         style="fill:#636466;fill-opacity:1;stroke-width:0.71447116" />
      <path
         inkscape:connector-curvature="0"
         class="cls-1"
         d="m 18.448943,54.209466 a 6.9589495,6.9589495 0 0 1 -1.557547,0.185762 c -1.921928,0 -2.922188,-0.957391 -2.922188,-2.957911 V 45.89302 H 12.540266 V 44.164 h 1.428942 v -2.74357 l 2.021954,-0.57872 v 3.293711 h 2.10769 l 0.292933,1.729021 h -2.400623 v 5.337099 a 1.1074304,1.1074304 0 0 0 1.271758,1.250326 3.4794749,3.4794749 0 0 0 0.921668,-0.107172 z"
         id="path12-8"
         style="fill:#636466;fill-opacity:1;stroke-width:0.71447116" />
      <path
         inkscape:connector-curvature="0"
         class="cls-1"
         d="m 28.301501,47.00045 v 7.187581 h -2.021954 v -6.501688 c 0,-1.150298 -0.392958,-1.921927 -1.62185,-1.921927 -1.043128,0 -2.086255,1.00026 -2.522083,1.521823 v 6.901792 H 20.113661 V 39.698555 l 2.021953,-0.578721 v 6.230188 a 5.0656008,5.0656008 0 0 1 3.186542,-1.371784 c 2.000519,0 2.979345,1.207456 2.979345,3.022212"
         id="path14-9"
         style="fill:#636466;fill-opacity:1;stroke-width:0.71447116" />
      <path
         inkscape:connector-curvature="0"
         class="cls-1"
         d="m 31.795264,49.479666 c 0,1.064563 0.414394,3.165107 2.815017,3.165107 a 5.6157437,5.6157437 0 0 0 3.572357,-1.428942 l 0.292933,1.793323 a 5.9944135,5.9944135 0 0 1 -4.065342,1.371784 c -2.757858,0 -4.629773,-1.85048 -4.629773,-5.229929 0,-3.500908 2.143414,-5.208494 4.436867,-5.208494 2.986489,0 4.286827,2.436346 4.286827,5.001297 v 0.500131 z m 4.586906,-1.586125 c -0.128605,-0.664459 -0.400104,-2.293453 -2.21486,-2.293453 -1.428943,0 -2.100545,1.293192 -2.272019,2.293453 z"
         id="path16-6"
         style="fill:#636466;fill-opacity:1;stroke-width:0.71447116" />
      <path
         inkscape:connector-curvature="0"
         class="cls-1"
         d="m 42.097939,45.957323 a 4.2868272,4.2868272 0 0 1 3.465186,-1.98623 l 0.285789,1.83619 a 3.9724599,3.9724599 0 0 0 -3.643804,2.193428 v 6.18732 H 40.161724 V 44.185434 h 1.68615 z"
         id="path18-2"
         style="fill:#636466;fill-opacity:1;stroke-width:0.71447116" />
      <path
         inkscape:connector-curvature="0"
         class="cls-1"
         d="m 55.10846,47.00045 v 7.187581 h -2.043387 v -6.501688 c 0,-1.150298 -0.371525,-1.921927 -1.600416,-1.921927 -1.043128,0 -2.143414,1.00026 -2.522083,1.521823 v 6.901792 H 46.899187 V 44.185434 h 1.750453 l 0.164329,1.293194 a 5.2013504,5.2013504 0 0 1 3.329436,-1.50039 c 2.000519,0 2.979346,1.207456 2.979346,3.022212"
         id="path20-6"
         style="fill:#636466;fill-opacity:1;stroke-width:0.71447116" />
      <path
         inkscape:connector-curvature="0"
         class="cls-1"
         d="m -9.2046645,58.939553 -0.314367,2.143414 A 6.1658865,6.1658865 0 0 0 -13.37003,59.654025 c -3.000779,0 -4.486879,2.422056 -4.486879,5.508572 0,3.272279 1.607559,5.479995 4.486879,5.479995 a 6.9017918,6.9017918 0 0 0 4.0653395,-1.521824 l 0.292934,2.143414 c -0.192908,0.22863 -1.6075605,1.307482 -4.3797075,1.307482 -3.901013,0 -6.673162,-2.807872 -6.673162,-7.394778 0,-4.586904 2.772149,-7.401921 6.673162,-7.401921 a 6.8660683,6.8660683 0 0 1 4.1867995,1.164588"
         id="path22-9"
         style="fill:#636466;fill-opacity:1;stroke-width:0.71447116" />
      <path
         inkscape:connector-curvature="0"
         class="cls-1"
         d="m -3.6675125,72.571664 c -2.586385,0 -4.651207,-1.664718 -4.651207,-5.208495 0,-3.543777 2.143414,-5.208495 4.651207,-5.208495 2.664978,0 4.62977408,1.829045 4.62977408,5.208495 0,3.379449 -2.08625708,5.208495 -4.62977408,5.208495 m 0,-1.729021 c 1.564693,0 2.586387,-1.478955 2.586387,-3.479474 0,-2.00052 -1.000261,-3.479475 -2.586387,-3.479475 -1.750454,0 -2.586385,1.664719 -2.586385,3.479475 0,1.936216 0.935957,3.479474 2.586385,3.479474"
         id="path24-4"
         style="fill:#636466;fill-opacity:1;stroke-width:0.71447116" />
      <path
         inkscape:connector-curvature="0"
         class="cls-1"
         d="m 16.38055,65.176886 v 7.187581 h -2.021956 v -6.501688 c 0,-1.150298 -0.335799,-1.921927 -1.564689,-1.921927 -1.043128,0 -2.043388,0.985969 -2.464926,1.521823 v 6.901792 H 8.2855915 v -6.501688 c 0,-1.150298 -0.328657,-1.921927 -1.557547,-1.921927 -1.043129,0 -2.043388,1.00026 -2.464926,1.521823 v 6.901792 H 2.2197305 V 62.36187 h 1.750455 l 0.171473,1.293194 a 5.1299032,5.1299032 0 0 1 3.272278,-1.50039 2.5578069,2.5578069 0 0 1 2.6435435,1.557547 5.1084691,5.1084691 0 0 1 3.422315,-1.557547 c 2.00052,0 2.857885,1.207456 2.857885,3.022212"
         id="path26-5"
         style="fill:#636466;fill-opacity:1;stroke-width:0.71447116" />
      <path
         inkscape:connector-curvature="0"
         class="cls-1"
         d="m 20.117229,63.633628 a 4.2010906,4.2010906 0 0 1 3.12224,-1.478954 c 2.3792,0 3.96531,1.664718 3.96531,5.208495 0,3.686672 -2.46492,5.208495 -4.83697,5.208495 a 6.0087029,6.0087029 0 0 1 -2.06481,-0.414394 v 3.500909 l -2.043387,0.585867 v -13.90361 h 1.664717 z m 0.18577,1.600417 v 5.258508 a 5.980124,5.980124 0 0 0 1.91478,0.35009 c 1.9648,0 2.94362,-1.500389 2.94362,-3.479474 0,-2.107691 -0.90023,-3.479475 -2.47921,-3.479475 a 3.572356,3.572356 0 0 0 -2.40777,1.350351"
         id="path28-2"
         style="fill:#636466;fill-opacity:1;stroke-width:0.71447116" />
      <path
         inkscape:connector-curvature="0"
         class="cls-1"
         d="m 34.563829,72.364467 -0.0858,-1.22889 a 3.6652373,3.6652373 0 0 1 -2.97935,1.428942 c -1.87906,0 -3.37944,-0.978825 -3.37944,-3.122239 0,-3.000779 4.06533,-3.422317 6.19446,-3.650948 v -0.314367 c 0,-0.714471 -0.29293,-1.600416 -1.95766,-1.600416 a 8.0306564,8.0306564 0 0 0 -3.2937,0.914523 l -0.27151,-1.793323 a 9.4167305,9.4167305 0 0 1 3.70812,-0.857365 c 2.97934,0 3.85814,1.357496 3.85814,3.572356 v 6.673162 z m -0.25005,-4.958431 c -2.29345,0.228632 -4.19395,0.714473 -4.19395,2.100547 0,0.900233 0.62874,1.33606 1.54326,1.33606 a 4.0010387,4.0010387 0 0 0 2.65069,-1.314626 z"
         id="path30-2"
         style="fill:#636466;fill-opacity:1;stroke-width:0.71447116" />
      <path
         inkscape:connector-curvature="0"
         class="cls-1"
         d="m 46.488369,65.176886 v 7.187581 h -2.04339 v -6.501688 c 0,-1.150298 -0.37868,-1.921927 -1.60756,-1.921927 -1.04313,0 -2.10054,1.00026 -2.52208,1.521823 v 6.901792 h -2.04339 V 62.36187 h 1.75045 l 0.17148,1.293194 a 5.2013504,5.2013504 0 0 1 3.31514,-1.478957 c 2.00052,0 2.97935,1.207456 2.97935,3.022215"
         id="path32-5"
         style="fill:#636466;fill-opacity:1;stroke-width:0.71447116" />
      <path
         inkscape:connector-curvature="0"
         class="cls-1"
         d="m 49.567739,62.340436 2.56495,7.459079 2.52209,-7.459079 h 2.05767 c 0,0 -2.85788,7.816315 -4.00103,10.838528 -1.00027,2.72928 -2.66498,2.857886 -3.52235,2.857886 a 3.8724339,3.8724339 0 0 1 -0.8145,-0.08574 l -0.23578,-1.771888 a 3.8009869,3.8009869 0 0 0 1.10743,0.185762 1.5504025,1.5504025 0 0 0 1.52898,-1.193167 c 0.16432,-0.457262 0.31436,-0.900234 0.31436,-0.900234 l -3.66524,-9.93115 z"
         id="path34-9"
         style="fill:#636466;fill-opacity:1;stroke-width:0.71447116" />
      <polygon
         class="cls-2"
         points="12.23,25.74 0,31.87 36.8,31.87 36.8,31.86 "
         id="polygon36-6"
         style="fill:#007dba"
         transform="translate(-0.07608856)" />
      <polygon
         class="cls-3"
         points="0,31.87 12.23,25.74 4.63,23.84 "
         id="polygon38-0"
         style="fill:#b2d235"
         transform="translate(-0.07608856)" />
      <polygon
         class="cls-4"
         points="36.8,31.86 28.54,17.56 12.23,25.74 "
         id="polygon40-5"
         style="fill:#00bdf2"
         transform="translate(-0.07608856)" />
      <polygon
         class="cls-5"
         points="5.61,22.15 27.56,15.86 18.4,0 "
         id="polygon42-1"
         style="fill:#ed1d24"
         transform="translate(-0.07608856)" />
    </g>
  </g>
</svg>
